<?xml version="1.0" encoding="UTF-8"?>
<svg width="194px" height="194px" viewBox="0 0 194 194" version="1.1" xmlns="http://www.w3.org/2000/svg" xmlns:xlink="http://www.w3.org/1999/xlink">
    <title>cvehound-logo</title>
    <defs>
        <linearGradient x1="29.437476%" y1="27.4119616%" x2="55.3056235%" y2="63.8639573%" id="linearGradient-1">
            <stop stop-color="#FFE600" offset="0%"></stop>
            <stop stop-color="#FFC300" offset="100%"></stop>
        </linearGradient>
        <linearGradient x1="50%" y1="123.453578%" x2="49.99636%" y2="-9.05285347%" id="linearGradient-2">
            <stop stop-color="#FFC800" offset="0%"></stop>
            <stop stop-color="#FF9B00" offset="25.6862717%"></stop>
            <stop stop-color="#FFC800" offset="74.7894927%"></stop>
            <stop stop-color="#FFE400" offset="100%"></stop>
        </linearGradient>
    </defs>
    <g id="Page-1" stroke="none" stroke-width="1" fill="none" fill-rule="evenodd">
        <g id="Artboard" transform="translate(-403, -403)">
            <g id="cvehound-logo" transform="translate(403, 403)">
                <circle id="Oval-Copy-3" fill="#EFEBDC" cx="97" cy="97" r="97"></circle>
                <path d="M80.772151,34 C96.6708449,34 104.025341,47.709553 104.146221,47.9074982 C105.767951,48.6846656 107.334544,49.2494851 108.846,49.6019564 C119.728486,51.9811379 128.570506,62.0265711 130.308681,74.0105967 C130.613482,76.1937549 132.394646,77.822889 134.511254,77.8544628 L146.715763,78.0365194 C154.718436,78.1558966 161.113029,85.0138677 160.998485,93.3542266 C160.984752,94.3542035 160.875751,95.3502865 160.673093,96.3278086 C155.051582,123.442603 137.298286,137 107.413206,137 C105.801535,137 104.20593,136.919424 102.629165,136.761523 L102.867562,138.796249 C104.205707,150.243877 100.315787,161.68525 92.2773946,169.944977 L91.7712045,170.465105 C85.4946847,176.914446 75.1783355,177.054546 68.7289938,170.778026 C68.4534227,170.50984 68.1874311,170.231983 67.9315186,169.944977 C60.5249081,161.638467 57.0101268,150.568689 58.2683783,139.510986 L59.3050571,130.395489 C48.2991861,122.141775 45.8422575,103.496843 53.2261594,85.8022686 C52.4112523,81.3741064 51.9826242,76.7783002 51.9826242,72.0652174 C51.9826242,62.1992709 53.8608507,52.8472249 57.2212782,44.4730078 L57.256051,44.4141998 L57.3593515,44.2531442 L57.9185623,43.4325632 C61.9886359,37.522695 65.5647047,34 80.772151,34 Z" id="Path" stroke="#FFF4CC" stroke-width="5"></path>
                <g id="Group-2" transform="translate(49, 34)">
                    <path d="M31.772151,0 C47.6708449,0 55.0253414,13.709553 55.1462213,13.9074982 C56.7679507,14.6846656 58.3345436,15.2494851 59.846,15.6019564 C70.7284859,17.9811379 79.5705058,28.0265711 81.3086806,40.0105967 C81.6134817,42.1937549 83.3946457,43.822889 85.5112541,43.8544628 L97.7157634,44.0365194 C105.718436,44.1558966 112.113029,51.0138677 111.998485,59.3542266 C111.984752,60.3542035 111.875751,61.3502865 111.673093,62.3278086 C106.051582,89.4426029 88.2982864,103 58.4132057,103 C50.383779,103 42.7531003,101.00003 35.8643673,97.4021341 C27.8066613,101.354976 19.3481675,101.793062 12.3983916,97.7781834 C-0.36713681,90.40355 -3.60491458,70.5684336 4.22615941,51.8022686 C3.41125228,47.3741064 2.98262423,42.7783002 2.98262423,38.0652174 C2.98262423,28.1992709 4.86085068,18.8472249 8.22127821,10.4730078 L8.25605097,10.4141998 L8.3593515,10.2531442 C12.6875705,3.85021829 15.8734571,0 31.772151,0 Z" id="Path" fill="url(#linearGradient-1)"></path>
                    <ellipse id="Oval" fill="#FF9A00" cx="64.5" cy="44" rx="6.5" ry="8"></ellipse>
                    <path d="M25.7981648,26 L37.1948121,26 C41.3909417,26 45.0728531,28.9175616 45.4185913,32.5165563 L53.8675619,104.796249 C55.2057065,116.243877 51.3157867,127.68525 43.2773946,135.944977 L42.7712045,136.465105 C36.4946847,142.914446 26.1783355,143.054546 19.7289938,136.778026 C19.4534227,136.50984 19.1874311,136.231983 18.9315186,135.944977 C11.5249081,127.638467 8.01012675,116.568689 9.26837833,105.510986 L17.5743855,32.5165563 L17.5743855,32.5165563 C17.9201237,28.9175616 21.6020351,26 25.7981648,26 Z" id="Rectangle" fill="url(#linearGradient-2)"></path>
                </g>
            </g>
        </g>
    </g>
</svg>